<?xml version="1.0" standalone="no"?>
<!DOCTYPE svg PUBLIC "-//W3C//DTD SVG 20010904//EN"
 "http://www.w3.org/TR/2001/REC-SVG-20010904/DTD/svg10.dtd">
<svg version="1.0" xmlns="http://www.w3.org/2000/svg"
 width="432.000000pt" height="432.000000pt" viewBox="0 0 432.000000 432.000000"
 preserveAspectRatio="xMidYMid meet">
<metadata>
Created by potrace 1.11, written by Peter Selinger 2001-2013
</metadata>
<g transform="translate(0.000000,432.000000) scale(0.100000,-0.100000)"
fill="#000000" stroke="none">
<path d="M1630 4046 c-19 -7 -35 -19 -35 -26 0 -8 -9 -24 -20 -36 -22 -24
-106 -118 -159 -178 l-34 -39 -31 49 c-17 27 -31 54 -31 60 0 6 -16 18 -36 27
-49 24 -88 7 -92 -41 -2 -23 1 -32 12 -32 15 0 73 -63 95 -104 13 -23 11 -29
-23 -75 -21 -28 -48 -71 -61 -95 -13 -25 -31 -56 -40 -70 -11 -17 -13 -26 -5
-31 10 -6 159 140 160 158 0 4 6 7 14 7 7 0 19 -20 26 -44 13 -48 24 -65 82
-131 29 -33 45 -42 72 -43 21 -1 36 4 40 13 6 16 -18 45 -37 45 -24 0 -100
140 -112 206 -6 26 2 37 67 101 96 94 144 137 194 173 52 37 57 50 33 89 -21
34 -27 35 -79 17z"/>
<path d="M2585 3441 c-55 -26 -120 -96 -182 -196 -65 -104 -231 -417 -265
-498 -12 -29 -28 -60 -36 -69 -8 -10 -12 -18 -8 -18 3 0 -1 -11 -10 -25 -9
-14 -18 -24 -20 -22 -2 1 6 39 17 82 23 88 23 89 45 195 22 111 23 117 24 211
2 182 -52 262 -112 163 -63 -104 -148 -294 -131 -294 3 0 0 -7 -7 -15 -7 -8
-9 -15 -5 -15 4 0 2 -7 -5 -15 -7 -8 -9 -15 -6 -15 4 0 3 -7 -2 -16 -5 -9 -24
-18 -41 -19 -32 -3 -57 -18 -196 -120 -38 -29 -100 -73 -138 -99 l-67 -48 0
64 c2 110 -10 532 -15 555 -7 33 -45 63 -78 63 -38 0 -87 -48 -88 -87 0 -15
-2 -39 -4 -53 -1 -14 -6 -74 -9 -135 -4 -60 -9 -123 -11 -140 -2 -16 -7 -64
-10 -105 -3 -41 -8 -104 -11 -140 -3 -36 -7 -96 -8 -134 -4 -76 3 -66 -101
-151 -226 -184 -430 -372 -507 -466 -18 -23 -41 -51 -52 -62 -36 -42 -118
-172 -147 -236 -64 -138 -84 -245 -84 -446 1 -136 6 -201 22 -290 3 -16 6 -39
8 -50 11 -82 87 -292 125 -344 11 -16 20 -32 20 -35 0 -3 10 -18 23 -32 77
-92 142 -124 236 -120 133 5 232 85 337 271 41 72 113 226 119 254 2 9 18 57
35 106 36 105 107 389 114 458 3 27 8 52 10 55 2 4 7 34 11 67 3 32 8 62 10
65 2 3 6 35 9 71 4 36 8 76 11 90 7 42 16 170 20 289 8 219 16 311 26 328 6 9
63 60 127 112 64 52 136 114 161 137 25 23 47 41 48 40 1 -1 -11 -49 -27 -107
-16 -57 -32 -115 -34 -129 -3 -14 -16 -77 -29 -139 -32 -150 -33 -327 -1 -386
28 -54 63 -78 122 -84 63 -6 92 10 167 90 79 85 95 107 157 213 79 134 80 136
175 328 48 97 91 177 95 177 3 0 4 -24 0 -52 -7 -67 -7 -237 1 -303 9 -69 22
-109 52 -161 78 -133 291 -104 419 58 57 73 126 176 126 188 0 6 4 9 9 6 4 -3
11 -31 15 -63 24 -220 100 -365 226 -428 47 -24 62 -27 122 -23 109 8 174 55
369 264 77 83 169 210 246 339 37 63 122 240 127 265 1 3 5 11 9 18 5 6 5 12
2 12 -3 0 1 12 9 28 20 37 46 120 46 148 0 12 -12 36 -26 53 -20 24 -34 31
-61 31 -49 0 -74 -31 -132 -165 -110 -251 -219 -422 -366 -571 -83 -85 -96
-93 -162 -115 -88 -28 -95 -24 -126 75 -20 63 -22 91 -21 256 0 160 3 236 19
454 1 21 -5 59 -15 85 -14 39 -25 50 -68 72 -61 32 -83 29 -147 -19 -45 -35
-71 -70 -132 -182 -13 -25 -29 -54 -36 -65 -48 -78 -104 -178 -129 -227 -10
-20 -23 -40 -29 -44 -8 -4 -9 -3 -5 4 4 7 9 36 12 65 2 28 7 63 10 77 3 14 7
39 10 55 3 17 14 59 24 95 38 129 52 228 52 354 -1 141 -36 230 -110 276 -56
35 -108 38 -167 11z m-1430 -1443 c-22 -150 -59 -387 -71 -448 -22 -113 -22
-115 -24 -115 -1 0 -4 -11 -6 -24 -2 -14 -12 -52 -20 -85 -9 -34 -18 -71 -20
-83 -2 -12 -9 -35 -15 -50 -6 -16 -11 -30 -12 -33 0 -3 -14 -39 -30 -80 -15
-41 -30 -79 -31 -85 -2 -5 -11 -28 -20 -50 -91 -215 -126 -287 -143 -292 -7
-3 -38 80 -49 132 -1 6 -9 30 -17 55 -83 243 -94 458 -29 603 11 26 18 47 14
47 -4 0 -2 4 4 8 6 4 21 28 34 55 13 26 27 47 32 47 4 0 8 5 8 11 0 7 16 33
36 58 41 51 345 358 356 360 5 1 6 -14 3 -31z"/>
</g>
</svg>
